<mxfile host="app.diagrams.net" modified="2021-03-30T03:21:29.416Z" agent="5.0 (Windows NT 10.0; Win64; x64) AppleWebKit/537.36 (KHTML, like Gecko) Chrome/89.0.4389.90 Safari/537.36" etag="F2us-LxJT_6en3NozUqC" version="14.5.3" type="github">
  <diagram id="725LeDUXfW7LD5L2FMua" name="第 1 页">
    <mxGraphModel dx="1422" dy="1876" grid="1" gridSize="10" guides="1" tooltips="1" connect="1" arrows="1" fold="1" page="1" pageScale="1" pageWidth="827" pageHeight="1169" math="0" shadow="1">
      <root>
        <mxCell id="0" />
        <mxCell id="1" parent="0" />
        <mxCell id="MKRarqYQ3UDj6TJpy0mC-1" value="&lt;b style=&quot;font-size: 14px;&quot;&gt;CPU工作站&lt;/b&gt;" style="rounded=1;whiteSpace=wrap;html=1;fontSize=14;" vertex="1" parent="1">
          <mxGeometry x="350" y="280" width="120" height="60" as="geometry" />
        </mxCell>
        <mxCell id="MKRarqYQ3UDj6TJpy0mC-2" value="" style="html=1;shadow=0;dashed=0;align=center;verticalAlign=middle;shape=mxgraph.arrows2.twoWayArrow;dy=0.65;dx=22;rotation=0;direction=north;" vertex="1" parent="1">
          <mxGeometry x="380" y="180" width="60" height="100" as="geometry" />
        </mxCell>
        <mxCell id="MKRarqYQ3UDj6TJpy0mC-3" value="&lt;p class=&quot;MsoNormal&quot;&gt;&lt;span style=&quot;font-family: &amp;#34;times new roman&amp;#34; ; font-size: 12.0000pt&quot;&gt;&lt;font face=&quot;宋体&quot;&gt;人员安全智能识别与预警&lt;/font&gt;&lt;/span&gt;&lt;/p&gt;" style="rounded=1;whiteSpace=wrap;html=1;rotation=0;direction=east;" vertex="1" parent="1">
          <mxGeometry x="350" y="120" width="120" height="60" as="geometry" />
        </mxCell>
        <mxCell id="MKRarqYQ3UDj6TJpy0mC-4" value="" style="html=1;shadow=0;dashed=0;align=center;verticalAlign=middle;shape=mxgraph.arrows2.twoWayArrow;dy=0.65;dx=22;rotation=0;direction=north;" vertex="1" parent="1">
          <mxGeometry x="380" y="20" width="60" height="100" as="geometry" />
        </mxCell>
        <mxCell id="MKRarqYQ3UDj6TJpy0mC-5" value="&lt;p class=&quot;MsoNormal&quot;&gt;&lt;span style=&quot;font-family: &amp;quot;times new roman&amp;quot; ; font-size: 12.0000pt&quot;&gt;&lt;font face=&quot;宋体&quot;&gt;BIM模型，摄像头&lt;/font&gt;&lt;/span&gt;&lt;/p&gt;" style="rounded=1;whiteSpace=wrap;html=1;fontStyle=1;rotation=0;direction=east;" vertex="1" parent="1">
          <mxGeometry x="350" y="-40" width="120" height="60" as="geometry" />
        </mxCell>
        <mxCell id="MKRarqYQ3UDj6TJpy0mC-7" value="" style="html=1;shadow=0;dashed=0;align=center;verticalAlign=middle;shape=mxgraph.arrows2.twoWayArrow;dy=0.65;dx=22;" vertex="1" parent="1">
          <mxGeometry x="470" y="280" width="100" height="60" as="geometry" />
        </mxCell>
        <mxCell id="MKRarqYQ3UDj6TJpy0mC-8" value="&lt;p class=&quot;MsoNormal&quot;&gt;&lt;span style=&quot;font-size: 12.0000pt&quot;&gt;&lt;font face=&quot;宋体&quot;&gt;桥梁应力情况分析&lt;/font&gt;&lt;font face=&quot;宋体&quot;&gt;与预警&lt;/font&gt;&lt;/span&gt;&lt;/p&gt;" style="rounded=1;whiteSpace=wrap;html=1;" vertex="1" parent="1">
          <mxGeometry x="570" y="280" width="120" height="60" as="geometry" />
        </mxCell>
        <mxCell id="MKRarqYQ3UDj6TJpy0mC-9" value="&lt;p class=&quot;MsoNormal&quot;&gt;&lt;span style=&quot;font-family: &amp;#34;times new roman&amp;#34; ; font-size: 12.0000pt&quot;&gt;&lt;font face=&quot;宋体&quot;&gt;应力传感器&lt;/font&gt;&lt;/span&gt;&lt;/p&gt;" style="rounded=1;whiteSpace=wrap;html=1;fontStyle=1" vertex="1" parent="1">
          <mxGeometry x="790" y="280" width="120" height="60" as="geometry" />
        </mxCell>
        <mxCell id="MKRarqYQ3UDj6TJpy0mC-10" value="" style="html=1;shadow=0;dashed=0;align=center;verticalAlign=middle;shape=mxgraph.arrows2.twoWayArrow;dy=0.65;dx=22;" vertex="1" parent="1">
          <mxGeometry x="690" y="280" width="100" height="60" as="geometry" />
        </mxCell>
      </root>
    </mxGraphModel>
  </diagram>
</mxfile>
